<svg width="32" height="32" viewBox="0 0 32 32" fill="none" xmlns="http://www.w3.org/2000/svg">
<path d="M25.7682 27.2112L23.9441 9.84052C23.9059 9.47687 23.5993 9.20074 23.2337 9.20074H19.8052V8.41907C19.8052 5.98248 17.8227 4 15.3861 4C12.9494 4 10.9669 5.98248 10.9669 8.41907V9.20074H7.53842C7.17276 9.20074 6.86624 9.47687 6.82797 9.84052L5.00388 27.2112C4.98282 27.4124 5.04819 27.6133 5.1835 27.7638C5.319 27.9141 5.512 28 5.71433 28H25.0576C25.2601 28 25.4531 27.9141 25.5884 27.7638C25.7241 27.6133 25.7893 27.4124 25.7682 27.2112ZM12.3955 8.41907C12.3955 6.7702 13.7371 5.42859 15.3861 5.42859C17.035 5.42859 18.3766 6.7702 18.3766 8.41907V9.20074H12.3955V8.41907ZM6.50754 26.5714L8.18167 10.6293H10.9669V12.2035C10.9669 12.5979 11.2868 12.9178 11.6812 12.9178C12.0756 12.9178 12.3955 12.5979 12.3955 12.2035V10.6293H18.3766V12.2035C18.3766 12.5979 18.6965 12.9178 19.0909 12.9178C19.4853 12.9178 19.8052 12.5979 19.8052 12.2035V10.6293H22.5904L24.2646 26.5714H6.50754Z" fill="black"/>
</svg>
