<svg width="32" height="32" viewBox="0 0 32 32" fill="none" xmlns="http://www.w3.org/2000/svg">
<path d="M27.8535 26.4395L20.8817 19.4677C22.204 17.8351 23 15.7597 23 13.5C23 8.26175 18.7383 4 13.5 4C8.2617 4 4 8.26175 4 13.5C4 18.7383 8.26175 23.0001 13.5 23.0001C15.7597 23.0001 17.8351 22.204 19.4677 20.8817L26.4395 27.8536C26.6348 28.0488 26.9513 28.0488 27.1467 27.8536L27.8536 27.1466C28.0488 26.9513 28.0488 26.6347 27.8535 26.4395ZM13.5 21.0001C9.3643 21.0001 6.00002 17.6358 6.00002 13.5C6.00002 9.3643 9.3643 6.00002 13.5 6.00002C17.6358 6.00002 21.0001 9.3643 21.0001 13.5C21.0001 17.6358 17.6358 21.0001 13.5 21.0001Z" fill="black"/>
</svg>
